<?xml version="1.0" encoding="utf-8"?>
<!-- Generator: Adobe Illustrator 28.2.0, SVG Export Plug-In . SVG Version: 6.00 Build 0)  -->
<svg version="1.1" id="图层_1" xmlns="http://www.w3.org/2000/svg" xmlns:xlink="http://www.w3.org/1999/xlink" x="0px" y="0px"
	 viewBox="0 0 808 808" style="enable-background:new 0 0 808 808;" xml:space="preserve">
<style type="text/css">
	.st0{fill:#0168F5;}
	.st1{fill:#FFFFFF;}
</style>
<g>
	<path class="st0" d="M723.8,84.4C647.5,8.5,537.9,0,404,0C269.9,0,160.1,8.6,83.9,84.7S0,270.4,0,404.4S7.7,648,84,724.1
		S269.9,808,404,808s243.8-7.7,320-83.9s84-185.8,84-319.8C808,270.2,800.2,160.5,723.8,84.4z"/>
	<path class="st1" d="M663,382.6c-31.3-31.6-76.1-46.2-120.1-39.1c1.2-7.3,1.8-14.7,1.8-22C541.9,244.4,477,184.4,400,187.4
		c-72.9,2.8-131.5,61.3-134.2,134.2c0,7.3,0.6,14.7,1.8,22c-76.1-12-147.6,39.7-159.6,115.8S148,607,223.9,619
		c44.2,6.9,88.8-7.5,120.5-39.1c6.9-6.9,15.5-15.9,20.6-23.6l-41.5-37.5c-4.1,8.8-9.8,16.7-16.7,23.4c-33.6,33.6-88.1,33.6-121.7,0
		s-33.6-88.1,0-121.7s87.9-33.6,121.5,0L466,580.1l0,0c55.6,53.1,143.9,51.3,197.1-4.5c51.5-53.9,51.5-138.8,0-192.8V382.6z
		 M625.4,542.2c-33.6,33.6-88.1,33.6-121.7,0l0,0c0,0-157.6-158-159.4-159.6l-1-1l0,0c-33-34.2-32-88.8,2.4-121.7
		c34.2-33,88.8-32,121.7,2.4c15.3,16.1,24,37.3,24,59.4c0,20.6-7.5,40.3-20.8,56v0.4c-1.6,1.4-3.3,2.8-4.7,4.5
		c-7.5,7.5-14.2,15.9-19.9,24.8l39.5,39.5c3.9-9.2,9.2-17.5,16.1-24.6c1.2-1.2,2.6-2.4,3.9-3.9c34.2-33.2,88.8-32.2,121.9,1.8
		c33.2,34.2,32.2,88.8-1.8,121.9l0,0H625.4z"/>
</g>
</svg>
