<?xml version="1.0" encoding="UTF-8"?>
<svg id="_图层_1" data-name="图层 1" xmlns="http://www.w3.org/2000/svg" viewBox="0 0 293.6 213.9">
  <defs>
    <style>
      .cls-1 {
        fill: #0168f5;
        stroke: #0168f5;
        stroke-miterlimit: 10;
      }
    </style>
  </defs>
  <path class="cls-1" d="M274,96.5c-15.4-15.5-37.4-22.7-59-19.2.6-3.6.9-7.2.9-10.8C214.5,28.6,182.6-.9,144.8.6c-35.8,1.4-64.6,30.1-65.9,65.9,0,3.6.3,7.2.9,10.8C42.4,71.4,7.3,96.8,1.4,134.2c-5.9,37.4,19.6,72.5,56.9,78.4,21.7,3.4,43.6-3.7,59.2-19.2,3.4-3.4,7.6-7.8,10.1-11.6l-20.4-18.4c-2,4.3-4.8,8.2-8.2,11.5-16.5,16.5-43.3,16.5-59.8,0-16.5-16.5-16.5-43.3,0-59.8,16.5-16.5,43.2-16.5,59.7,0l78.3,78.4h0c27.3,26.1,70.7,25.2,96.8-2.2,25.3-26.5,25.3-68.2,0-94.7ZM255.5,174.9c-16.5,16.5-43.3,16.5-59.8,0h0s-77.4-77.6-78.3-78.4l-.5-.5h0c-16.2-16.8-15.7-43.6,1.2-59.8,16.8-16.2,43.6-15.7,59.8,1.2,7.5,7.9,11.8,18.3,11.8,29.2,0,10.1-3.7,19.8-10.2,27.5v.2c-.8.7-1.6,1.4-2.3,2.2-3.7,3.7-7,7.8-9.8,12.2l19.4,19.4c1.9-4.5,4.5-8.6,7.9-12.1.6-.6,1.3-1.2,1.9-1.9,16.8-16.3,43.6-15.8,59.9.9,16.3,16.8,15.8,43.6-.9,59.9h0Z"/>
</svg>